<mxfile host="65bd71144e">
    <diagram id="FBd5fxDKi_7ywRUtFoq8" name="PÃ¡gina-1">
        <mxGraphModel dx="1631" dy="835" grid="1" gridSize="10" guides="1" tooltips="1" connect="1" arrows="1" fold="1" page="1" pageScale="1" pageWidth="827" pageHeight="1169" math="0" shadow="0">
            <root>
                <mxCell id="0"/>
                <mxCell id="1" parent="0"/>
                <mxCell id="38" value="1" style="edgeStyle=none;html=1;endArrow=none;endFill=0;" parent="1" source="2" target="37" edge="1">
                    <mxGeometry relative="1" as="geometry"/>
                </mxCell>
                <mxCell id="2" value="ALUNO" style="rounded=1;whiteSpace=wrap;html=1;fillColor=#6a00ff;fontColor=#ffffff;strokeColor=#3700CC;" parent="1" vertex="1">
                    <mxGeometry x="60" y="145" width="120" height="60" as="geometry"/>
                </mxCell>
                <mxCell id="47" value="N" style="edgeStyle=none;html=1;endArrow=none;endFill=0;" parent="1" source="3" target="46" edge="1">
                    <mxGeometry relative="1" as="geometry"/>
                </mxCell>
                <mxCell id="3" value="PROFESSOR" style="rounded=1;whiteSpace=wrap;html=1;fillColor=#6a00ff;fontColor=#ffffff;strokeColor=#3700CC;" parent="1" vertex="1">
                    <mxGeometry x="280" y="575" width="120" height="60" as="geometry"/>
                </mxCell>
                <mxCell id="44" value="N" style="edgeStyle=none;html=1;endArrow=none;endFill=0;" parent="1" source="4" target="43" edge="1">
                    <mxGeometry relative="1" as="geometry"/>
                </mxCell>
                <mxCell id="4" value="CURSO" style="rounded=1;whiteSpace=wrap;html=1;fillColor=#6a00ff;fontColor=#ffffff;strokeColor=#3700CC;" parent="1" vertex="1">
                    <mxGeometry x="300" y="280" width="120" height="60" as="geometry"/>
                </mxCell>
                <mxCell id="5" value="DISCIPLINAS" style="rounded=1;whiteSpace=wrap;html=1;fillColor=#6a00ff;fontColor=#ffffff;strokeColor=#3700CC;" parent="1" vertex="1">
                    <mxGeometry x="70" y="420" width="120" height="60" as="geometry"/>
                </mxCell>
                <mxCell id="39" value="N" style="edgeStyle=none;html=1;endArrow=none;endFill=0;entryX=0.5;entryY=0;entryDx=0;entryDy=0;" parent="1" source="37" target="4" edge="1">
                    <mxGeometry relative="1" as="geometry">
                        <mxPoint x="490" y="190" as="targetPoint"/>
                    </mxGeometry>
                </mxCell>
                <mxCell id="37" value="MATRICULA" style="rhombus;whiteSpace=wrap;html=1;fillColor=#1ba1e2;strokeColor=#006EAF;fontColor=#ffffff;rounded=1;" parent="1" vertex="1">
                    <mxGeometry x="320" y="130" width="80" height="90" as="geometry"/>
                </mxCell>
                <mxCell id="45" value="N" style="edgeStyle=none;html=1;endArrow=none;endFill=0;" parent="1" source="43" target="5" edge="1">
                    <mxGeometry relative="1" as="geometry"/>
                </mxCell>
                <mxCell id="43" value="PERTENCE" style="rhombus;whiteSpace=wrap;html=1;fillColor=#1ba1e2;strokeColor=#006EAF;fontColor=#ffffff;rounded=1;" parent="1" vertex="1">
                    <mxGeometry x="320" y="410" width="80" height="80" as="geometry"/>
                </mxCell>
                <mxCell id="48" value="N" style="edgeStyle=none;html=1;endArrow=none;endFill=0;" parent="1" source="46" target="5" edge="1">
                    <mxGeometry relative="1" as="geometry"/>
                </mxCell>
                <mxCell id="46" value="MINISTRA" style="rhombus;whiteSpace=wrap;html=1;fillColor=#1ba1e2;strokeColor=#006EAF;fontColor=#ffffff;rounded=1;" parent="1" vertex="1">
                    <mxGeometry x="90" y="565" width="80" height="80" as="geometry"/>
                </mxCell>
            </root>
        </mxGraphModel>
    </diagram>
</mxfile>